<svg width="55" height="55" viewBox="0 0 55 55" fill="none" xmlns="http://www.w3.org/2000/svg">
    <rect x="0.5" y="0.5" width="54" height="54" rx="27" fill="#FCF3F6"/>
    <rect x="0.5" y="0.5" width="54" height="54" rx="27" stroke="#F83758"/>
    <g clip-path="url(#clip0_1_18682)">
        <path d="M32.1864 15C30.8536 15.0922 29.2958 15.9453 28.388 17.0562C27.5599 18.064 26.8786 19.5609 27.1443 21.0156C28.6005 21.0609 30.1052 20.1875 30.977 19.0578C31.7927 18.0062 32.4098 16.5187 32.1864 15Z" fill="black"/>
        <path d="M37.4535 23.3875C36.1739 21.7828 34.3754 20.8515 32.677 20.8515C30.4348 20.8515 29.4864 21.925 27.9286 21.925C26.3224 21.925 25.1021 20.8547 23.163 20.8547C21.2583 20.8547 19.2302 22.0187 17.9443 24.0093C16.1365 26.8124 16.4459 32.0827 19.3755 36.5718C20.424 38.178 21.8239 39.9842 23.6552 39.9999C25.2849 40.0155 25.7442 38.9546 27.952 38.9436C30.1598 38.9311 30.5786 40.0139 32.2051 39.9967C34.0379 39.9827 35.5145 37.9811 36.5629 36.3749C37.3145 35.2233 37.5942 34.6436 38.177 33.3436C33.9379 31.7296 33.2583 25.7015 37.4535 23.3875Z" fill="black"/>
    </g>
    <defs>
        <clipPath id="clip0_1_18682">
            <rect width="25" height="25" fill="white" transform="translate(15 15)"/>
        </clipPath>
    </defs>
</svg>
